<?xml version="1.0" standalone="no"?><!DOCTYPE svg PUBLIC "-//W3C//DTD SVG 1.1//EN" "http://www.w3.org/Graphics/SVG/1.1/DTD/svg11.dtd"><svg t="1774605023197" class="icon" viewBox="0 0 1024 1024" version="1.1" xmlns="http://www.w3.org/2000/svg" p-id="1648" xmlns:xlink="http://www.w3.org/1999/xlink" width="200" height="200"><path d="M518.4 985.258667C261.444267 985.258667 51.2 772.215467 51.2 511.829333 51.2 251.4432 261.444267 38.4 518.4 38.4S985.6 251.4432 985.6 511.829333c0 23.671467 0 47.342933-5.8368 76.936534 0 17.749333-17.527467 29.576533-35.037867 23.671466-17.527467 0-29.201067-17.749333-23.381333-35.498666 5.853867-23.688533 5.853867-41.437867 5.853867-65.109334 0-230.792533-181.0432-414.242133-408.797867-414.242133-227.754667 0-408.797867 189.354667-408.797867 420.164267 0 230.792533 181.0432 414.242133 408.797867 414.242133 23.364267 0 52.565333 0 75.912533-5.922133 17.527467-5.905067 29.201067 5.922133 35.054934 23.671466 5.8368 17.749333-5.853867 29.5936-23.381334 35.515734h-87.586133z" fill="#2E5DE9" p-id="1649"></path><path d="M956.535467 835.754667H665.821867c-17.442133 0-29.064533-12.458667-29.064534-31.146667s11.6224-31.146667 29.064534-31.146667h290.7136c17.442133 0 29.064533 12.458667 29.064533 31.146667s-17.442133 31.146667-29.064533 31.146667z" fill="#2E5DE9" p-id="1650"></path><path d="M804.949333 985.258667c-18.688 0-31.146667-11.6224-31.146666-29.064534V665.480533c0-17.442133 12.458667-29.064533 31.146666-29.064533s31.146667 11.6224 31.146667 29.064533v290.7136c0 11.6224-18.688 29.064533-31.146667 29.064534zM359.594667 638.839467c-0.3584 8.704-3.242667 15.172267-8.635734 19.3536-5.410133 4.181333-11.093333 6.280533-17.015466 6.280533a28.842667 28.842667 0 0 1-17.5104-6.024533c-5.410133-4.010667-8.635733-10.018133-9.693867-18.039467 0-22.3232 0.1024-44.544 0.273067-66.696533a8538.282667 8538.282667 0 0 0 0-135.236267c-0.170667-23.005867-0.273067-46.557867-0.273067-70.621867 1.757867-7.3216 4.983467-12.8 9.693867-16.469333 4.693333-3.669333 10.1888-5.495467 16.469333-5.495467 5.239467 0 10.376533 1.7408 15.428267 5.2224 5.0688 3.498667 8.465067 8.721067 10.205866 15.701334v56.490666c0 9.4208-0.085333 17.9712-0.256 25.634134-0.170667 7.68-0.273067 16.571733-0.273066 26.692266a185.6 185.6 0 0 0 50.756266-37.410133 722.3808 722.3808 0 0 0 40.789334-45.7728c3.84-5.5808 8.021333-11.332267 12.561066-17.271467 4.539733-5.922133 9.591467-11.844267 15.172267-17.783466 6.980267-5.922133 14.301867-8.874667 21.9648-8.874667 6.997333 0 12.817067 2.082133 17.527467 6.263467 4.7104 4.181333 7.0656 9.4208 7.0656 15.701333 0 2.440533-0.8704 6.263467-2.6112 11.502933-5.5808 6.621867-10.990933 12.9024-16.213334 18.824534a209.92 209.92 0 0 0-14.1312 17.800533 3317.589333 3317.589333 0 0 1-34.525866 40.789333c-10.820267 12.561067-23.381333 24.064-37.666134 34.525867l26.1632 28.2624c15.342933 16.384 30.327467 32.341333 44.987734 47.854933 14.6432 15.530667 29.6448 31.658667 44.987733 48.401067 6.280533 8.021333 9.403733 14.813867 9.403733 20.394667 0 6.280533-2.2528 11.434667-6.792533 15.428266-4.539733 4.010667-10.2912 6.024533-17.271467 6.024534-3.822933 0-7.68-0.6144-11.502933-1.8432a23.790933 23.790933 0 0 1-10.461867-7.048534 298.018133 298.018133 0 0 0-8.891733-9.949866 2248.704 2248.704 0 0 0-14.6432-15.701334c-5.5808-5.922133-11.776-12.458667-18.568533-19.6096l-20.667734-21.7088c-6.980267-7.3216-13.687467-14.472533-20.138666-21.4528-6.4512-6.9632-12.458667-13.329067-18.056534-19.080533a748.1856 748.1856 0 0 1-14.114133-14.916267 295.082667 295.082667 0 0 1-8.362667-9.4208 103.253333 103.253333 0 0 1-7.850666 2.628267c-2.4576 0.682667-5.597867 1.7408-9.4208 3.1232 0 8.021333 0.085333 16.930133 0.256 26.692267a48457.7792 48457.7792 0 0 1 1.041066 59.904c0.170667 9.9328 0.443733 18.909867 0.785067 26.9312z m217.088-16.213334c-4.881067-10.120533-4.9664-18.568533-0.256-25.378133 4.693333-6.792533 11.588267-10.205867 20.650666-10.205867 5.9392 0 12.3904 2.269867 19.3536 6.8096 7.338667 9.762133 16.042667 17.954133 26.1632 24.576 10.120533 6.638933 20.753067 8.9088 31.914667 6.8096a34.304 34.304 0 0 0 13.858133-6.007466c4.010667-2.9696 6.980267-6.365867 8.891734-10.205867 1.928533-3.84 2.884267-8.021333 2.884266-12.561067 0-4.522667-1.2288-8.704-3.669333-12.544a44.475733 44.475733 0 0 0-10.205867-11.52 41.403733 41.403733 0 0 0-11.502933-6.280533 81.646933 81.646933 0 0 0-11.502933-3.140267 79.0528 79.0528 0 0 1-10.205867-2.6112 528.657067 528.657067 0 0 1-15.701333-4.437333 94.72 94.72 0 0 1-15.1552-6.024533 77.994667 77.994667 0 0 1-14.1312-9.147734 77.2608 77.2608 0 0 1-13.073067-13.8752 63.317333 63.317333 0 0 1-8.891733-16.9984 52.667733 52.667733 0 0 1-3.140267-16.9984c0-7.338667 1.3824-14.813867 4.181333-22.493866 2.781867-7.68 6.536533-14.728533 11.246934-21.179734 4.7104-6.4512 10.2912-12.032 16.725333-16.7424a57.378133 57.378133 0 0 1 20.6848-9.6768 106.154667 106.154667 0 0 1 45.7728-1.570133c15.872 2.781867 30.071467 7.68 42.632533 14.6432 4.881067 3.4816 8.533333 7.150933 10.973867 10.990933 2.440533 3.822933 3.669333 7.509333 3.669333 10.973867 0 4.1984-1.1264 7.936-3.413333 11.264a26.555733 26.555733 0 0 1-8.874667 8.106667c-3.669333 2.082133-7.850667 3.1232-12.561066 3.1232-4.7104 0-9.6768-1.3824-14.916267-4.181334-4.181333-2.082133-10.018133-4.096-17.5104-6.007466a69.290667 69.290667 0 0 0-22.237867-2.0992c-7.338667 0.512-13.431467 2.884267-18.312533 7.0656-4.881067 4.181333-6.792533 11.1616-5.751467 20.923733 2.082133 3.84 4.608 7.0656 7.5776 9.6768 2.9696 2.6112 6.280533 4.795733 9.949867 6.536533 3.652267 1.7408 7.5776 3.242667 11.776 4.437334 4.181333 1.2288 8.192 2.372267 12.014933 3.413333 10.820267 3.140267 20.753067 6.7072 29.832534 10.717867a88.917333 88.917333 0 0 1 23.534933 14.916266 61.44 61.44 0 0 1 15.428267 21.4528c3.669333 8.362667 5.495467 18.4832 5.495466 30.327467a63.829333 63.829333 0 0 1-6.280533 27.477333 86.766933 86.766933 0 0 1-16.469333 23.790934 81.578667 81.578667 0 0 1-23.278934 16.7424 59.989333 59.989333 0 0 1-26.1632 6.280533 132.266667 132.266667 0 0 1-57.019733-13.073067c-18.4832-8.721067-33.314133-20.753067-44.458667-36.096h-0.529066z" fill="#2E5DE9" p-id="1651"></path></svg>